<?xml version="1.0" encoding="UTF-8"?>
<svg id="Layer_1" xmlns="http://www.w3.org/2000/svg" version="1.1" viewBox="0 0 60.5 60.6">
  <!-- Generator: Adobe Illustrator 29.1.0, SVG Export Plug-In . SVG Version: 2.1.0 Build 142)  -->
  <polygon points="24.2 60.5 24.2 60.5 24.2 60.6 36.3 60.6 36.3 60.5 36.3 60.5 36.3 36.3 24.2 36.3 24.2 60.5"/>
  <path d="M48.4,0H12.1C5.4,0,0,5.4,0,12.1h0v48.4h0s12.1,0,12.1,0h0s0,0,0,0v-21.2c0-.6,0-1.2,0-1.8.9-9.1,8.7-16.3,18.1-16.3s17.1,7.2,18.1,16.3c0,.6,0,1.2,0,1.8v21.2h0s12.1,0,12.1,0h0s0,0,0,0V12.1c0-6.7-5.4-12.1-12.1-12.1Z"/>
</svg>